<svg width="485" height="68" viewBox="0 0 485 68" fill="none" xmlns="http://www.w3.org/2000/svg">
<path d="M1.22786e-05 56.832V47.232H12.864V52.896L16.032 56.064H35.904L39.168 52.8V41.664L36 38.496H10.56L0.192012 28.128V10.368L10.56 7.62939e-06H40.896L51.264 10.368V20.064H38.4V14.304L35.232 11.136H16.224L13.056 14.304V24.192L16.224 27.36H41.664L52.032 37.728V56.64L41.472 67.2H10.368L1.22786e-05 56.832ZM75.3915 11.04H55.3275V7.62939e-06H108.512V11.04H88.4475V67.2H75.3915V11.04ZM126.381 7.62939e-06H138.285L162.861 67.2H149.613L144.141 52.32H120.525L115.053 67.2H101.805L126.381 7.62939e-06ZM141.261 41.568L132.333 16.032H132.141L123.501 41.568H141.261ZM222.428 44.928V67.2H209.372V47.904L203.612 41.472H182.684V67.2H169.628V7.62939e-06H211.772L222.044 10.368V30.72L215.516 37.344L222.428 44.928ZM182.684 30.72H205.82L209.18 27.36V14.304L205.82 10.944H182.684V30.72ZM248.267 11.04H228.203V7.62939e-06H281.387V11.04H261.323V67.2H248.267V11.04ZM289.065 7.62939e-06H302.121V56.16H335.721V67.2H289.065V7.62939e-06ZM343.358 7.62939e-06H356.414V67.2H343.358V7.62939e-06ZM369.409 7.62939e-06H381.121L411.073 45.6H411.265V7.62939e-06H423.841V67.2H412.129L382.177 21.696H381.985V67.2H369.409V7.62939e-06ZM436.346 7.62939e-06H484.922V11.04H449.402V28.032H482.138V38.88H449.402V56.16H484.922V67.2H436.346V7.62939e-06Z" fill="white"/>
</svg>
