<svg width="994" height="149" viewBox="0 0 994 149" fill="none" xmlns="http://www.w3.org/2000/svg">
<path d="M49.4297 98.8593H119.772L70.3422 148.289H0L49.4297 98.8593Z" fill="#B3E153"></path>
<path d="M169.202 49.4297H239.544L190.114 98.8593H119.772L169.202 49.4297Z" fill="#B3E153"></path>
<path d="M190.114 98.8593H260.456L211.027 148.289H140.684L190.114 98.8593Z" fill="#B3E153"></path>
<path d="M288.973 0H359.316L309.886 49.4296H239.544L288.973 0Z" fill="#B3E153"></path>
<path d="M309.886 49.4297H380.228L330.799 98.8593H260.456L309.886 49.4297Z" fill="#B3E153"></path>
<path d="M330.798 98.8593H401.141L351.711 148.289H281.369L330.798 98.8593Z" fill="#B3E153"></path>
<path d="M429.658 0H500L450.57 49.4296H380.228L429.658 0Z" fill="#B3E153"></path>
<path d="M148.289 0H218.631L169.202 49.4296H98.8593L148.289 0Z" fill="#B3E153"></path>
<path d="M504.8 96.632V87.032H517.664V92.696L520.832 95.864H540.704L543.968 92.6V81.464L540.8 78.296H515.36L504.992 67.928V50.168L515.36 39.8H545.696L556.064 50.168V59.864H543.2V54.104L540.032 50.936H521.024L517.856 54.104V63.992L521.024 67.16H546.464L556.832 77.528V96.44L546.272 107H515.168L504.8 96.632ZM580.192 50.84H560.128V39.8H613.312V50.84H593.248V107H580.192V50.84ZM631.181 39.8H643.085L667.661 107H654.413L648.941 92.12H625.325L619.853 107H606.605L631.181 39.8ZM646.061 81.368L637.133 55.832H636.941L628.301 81.368H646.061ZM727.228 84.728V107H714.172V87.704L708.412 81.272H687.484V107H674.428V39.8H716.572L726.844 50.168V70.52L720.316 77.144L727.228 84.728ZM687.484 70.52H710.62L713.98 67.16V54.104L710.62 50.744H687.484V70.52ZM753.067 50.84H733.003V39.8H786.187V50.84H766.123V107H753.067V50.84ZM793.865 39.8H806.921V95.96H840.521V107H793.865V39.8ZM848.158 39.8H861.214V107H848.158V39.8ZM874.209 39.8H885.921L915.873 85.4H916.065V39.8H928.641V107H916.929L886.977 61.496H886.785V107H874.209V39.8ZM941.146 39.8H989.722V50.84H954.202V67.832H986.938V78.68H954.202V95.96H989.722V107H941.146V39.8Z" fill="white"></path>
</svg>