<svg width="500" height="149" viewBox="0 0 500 149" fill="none" xmlns="http://www.w3.org/2000/svg">
<path d="M49.4297 98.8593H119.772L70.3422 148.289H0L49.4297 98.8593Z" fill="#B3E153"></path>
<path d="M169.202 49.4297H239.544L190.114 98.8593H119.772L169.202 49.4297Z" fill="#B3E153"></path>
<path d="M190.114 98.8593H260.456L211.027 148.289H140.684L190.114 98.8593Z" fill="#B3E153"></path>
<path d="M288.973 0H359.316L309.886 49.4296H239.544L288.973 0Z" fill="#B3E153"></path>
<path d="M309.886 49.4297H380.228L330.799 98.8593H260.456L309.886 49.4297Z" fill="#B3E153"></path>
<path d="M330.798 98.8593H401.141L351.711 148.289H281.369L330.798 98.8593Z" fill="#B3E153"></path>
<path d="M429.658 0H500L450.57 49.4296H380.228L429.658 0Z" fill="#B3E153"></path>
<path d="M148.289 0H218.631L169.202 49.4296H98.8593L148.289 0Z" fill="#B3E153"></path>
</svg>